<svg width="494" height="127" viewBox="0 0 494 127" fill="none" xmlns="http://www.w3.org/2000/svg">
<path d="M90 32.5692V3H251L222.029 32.5692H167.413V127H136.068V32.5692H90Z" fill="#274193"/>
<path d="M32.4609 53.4244V0L0 29.9926V127L84.0165 51.0812V124.657H116V2.81181H88.3128L32.4609 53.4244Z" fill="#274193"/>
<path d="M206.786 73.1218V34L183 55.9631V127L244.564 71.4059V125.284H268V36.059H247.712L206.786 73.1218Z" fill="#274193"/>
<path d="M346.442 47.5769C347.765 45.8545 348.456 43.6377 348.377 41.3709C348.456 39.104 347.765 36.8873 346.442 35.1649C345.743 34.3684 344.899 33.7477 343.967 33.3444C343.036 32.9411 342.038 32.7645 341.04 32.8264H308.589V126.995H279V32.8264L308.589 3.01096H346.563C350.767 2.8898 354.947 3.77426 358.82 5.60486C362.693 7.43546 366.17 10.1698 369.016 13.624C375.141 21.2094 378.354 31.1716 377.966 41.3709C378.08 46.4247 376.845 51.4023 374.418 55.6715C372.098 59.7383 368.877 63.0686 365.066 65.3402C368.982 66.7723 372.275 69.7885 374.297 73.7947C376.756 78.1875 378.029 83.2769 377.966 88.4551C378.375 98.7229 375.113 108.752 368.895 116.337C366.058 119.771 362.601 122.495 358.752 124.332C354.903 126.169 350.748 127.077 346.563 126.995H315.2V97.1344H341.04C342.048 97.1946 343.056 97.0039 343.99 96.5761C344.925 96.1483 345.762 95.4942 346.442 94.661C347.741 92.9235 348.429 90.7174 348.377 88.4551C348.456 86.1883 347.765 83.9716 346.442 82.2492C345.743 81.4526 344.899 80.8319 343.967 80.4286C343.036 80.0253 342.038 79.8487 341.04 79.9107H315.2V50.0952H341.04C342.051 50.1466 343.06 49.9473 343.994 49.5119C344.928 49.0764 345.764 48.4156 346.442 47.5769Z" fill="#274193"/>
<path d="M461.736 126.97H452.663C434.705 127.494 417.223 121.075 403.757 109.014C397.554 103.536 392.58 96.772 389.172 89.1789C385.763 81.5859 384 73.34 384 64.9971C384 56.6541 385.763 48.4081 389.172 40.8151C392.58 33.2221 397.554 26.4586 403.757 20.9805C417.167 8.9729 434.56 2.55765 452.441 3.02373H494L461.514 32.7871H454.876C444.995 32.3802 435.296 35.564 427.524 41.7655C424.071 44.4617 421.275 47.9261 419.351 51.8917C417.427 55.8573 416.426 60.2181 416.426 64.6379C416.426 69.0577 417.427 73.4186 419.351 77.3841C421.275 81.3497 424.071 84.8142 427.524 87.5104C435.232 93.795 444.903 97.0752 454.787 96.7581H461.559L461.736 126.97Z" fill="#274193"/>
</svg>
