<svg width="1022" height="1007" viewBox="0 0 1022 1007" fill="none" xmlns="http://www.w3.org/2000/svg">
<path fill-rule="evenodd" clip-rule="evenodd" d="M1281 149.58C1216.47 152.15 1151.77 157.421 1087 163.592L1023.56 231.692L1018.55 157.982L818.878 0L702.012 262.166L527.937 208.699L416.636 262.166V541.384C134.71 752.723 -111.933 1134.48 53.2377 1360.45C147.064 1488.94 381.799 1513.81 586.147 1487.73C822.996 1457.48 1015.66 1372.44 1111.49 1323.15H979.708C923.612 1350.43 845.701 1385.09 777.808 1403.24C557.098 1462.43 313.46 1491.91 155.189 1417.43C49.1195 1367.38 16.0631 1212.81 57.6897 1082.77C109.222 921.596 244.898 743.042 416.524 617.735L419.196 1271.88H527.603L527.826 276.468L707.577 324.434L704.683 1271.88H815.984V95.9331L1021.33 265.136L1023.56 994.348H1086.89V219.92H1249.5V994.348H1281V149.58Z" fill="#CED8E4"/>
<path fill-rule="evenodd" clip-rule="evenodd" d="M1059 464.22C1016.18 465.942 973.25 469.473 930.274 473.608L888.178 519.235L884.854 469.849L752.362 364L674.816 539.653L559.309 503.829L485.456 539.653V726.731C298.386 868.33 134.727 1124.11 244.326 1275.51C306.584 1361.6 462.34 1378.26 597.935 1360.79C755.094 1340.52 882.934 1283.54 946.522 1250.52H859.079C821.857 1268.8 770.16 1292.02 725.11 1304.18C578.659 1343.84 416.994 1363.59 311.975 1313.69C241.593 1280.15 219.659 1176.59 247.28 1089.46C281.474 981.476 371.501 861.843 485.382 777.886L487.155 1216.17H559.088L559.236 549.235L678.508 581.373L676.588 1216.17H750.441V428.276L886.701 541.643L888.178 1235.28L930.2 1131V511.348H1038.1V1141H1059V522.699V464.22Z" fill="#011860"/>
</svg>
